<svg width="350" height="54" fill="none" xmlns="http://www.w3.org/2000/svg"><path d="M98.159 47.724h10.063l2.326-4.096h-12.39v4.096Zm78.84-3.944h-7.837v-3.997h7.837c1.262 0 2.175.305 2.175 1.973 0 1.314-.556 2.024-2.175 2.024Zm-7.837-10.722h7.126c1.063 0 1.52.556 1.52 1.617 0 1.114-.708 1.671-1.52 1.671h-7.126v-3.288Zm10.965 3.687c1.179-.505 2.183-1.307 2.183-3.334 0-3.844-3.237-4.297-5.515-4.297h-12.034v18.61h12.238c5.612 0 6.776-3.085 6.776-5.92 0-3.187-1.81-4.508-3.648-5.059Zm37.078 10.979h10.063l2.327-4.096h-12.39v4.096ZM98.158 36.346v4.094h14.21l2.377-4.094H98.158Zm100.939 7.434h-6.522v-4.148h6.522c.76 0 1.922.202 1.922 2.072 0 1.72-.959 2.076-1.922 2.076Zm.252-7.991h-6.774v-6.675h-4.451v18.61h11.178c3.033 0 6.168-1.67 6.168-6.067 0-5.767-4.047-5.868-6.121-5.868Zm8.397 11.935h4.401v-18.61h-4.401v18.61Zm-83.393-18.61-10.669 18.61h5.258l7.03-12.29 7.08 12.29h5.511l-10.67-18.61h-3.54Zm25.386 14.767c-4.297 0-6.117-2.479-6.117-5.513 0-3.337 2.072-5.563 6.117-5.563 4.555 0 6.12 2.226 6.12 5.563 0 3.995-2.982 5.513-6.12 5.513Zm.053-15.222c-7.435 0-10.975 4.55-10.975 9.657 0 5.312 3.439 9.66 10.975 9.66 3.287 0 10.873-1.518 10.873-9.66 0-5.309-3.389-9.657-10.873-9.657ZM72.61 43.628l7.03-12.29 7.082 12.29H72.61Zm9.003-18.612h-3.642L67.3 43.628h-2.678v9.556h4.245v-5.46h21.847v5.46h4.249v-9.556h-2.68l-10.67-18.612Zm37.278 4.098H98.158v4.095h18.356l2.377-4.095Zm98.314 7.232v4.094h14.209l2.377-4.094h-16.586Zm20.731-7.232h-20.731v4.095h18.357l2.374-4.095Zm108.122 0L335.535 41.2V29.114h-4.448v18.61h3.742l10.722-12.188v12.188H350v-18.61h-3.942Zm-102.657 0-10.673 18.61h5.26l7.031-12.29 7.079 12.29h5.515l-10.672-18.61h-3.54Zm54.206 7.232h-9.76v-7.232h-4.451v18.61h4.451V40.44h9.76v7.284h4.451v-18.61h-4.451v7.232Zm13.957 4.854V29.114h-4.45v18.61h3.742l10.722-12.188v12.188h4.451v-18.61h-3.946L311.564 41.2Zm-47.688-.1V29.113h-4.453v18.61h3.745l10.721-12.087v12.087h4.451v-18.61h-3.742l-10.722 11.985Z" fill="#2B2A29"/><path d="m31.668 38.677-21.145-9.15L6.034 37.3l23.789 4.572 1.845-3.196Zm-2.946 9.077h7.032l6.177-10.7 6.179 10.7h7.03l-13.209-22.88-13.21 22.88ZM4.986 39.123 0 47.754h26.428l2.344-4.06-23.786-4.572Zm35.799-16.235L27.572 0 22.58 8.646l15.86 18.307 2.346-4.065Zm-3.397 5.888-15.86-18.312-4.485 7.77 18.498 13.739 1.847-3.197Zm-2.847 4.922-18.5-13.727-4.518 7.825 21.146 9.151 1.872-3.249Z" fill="#F8AF03"/></svg>