<svg width="229" height="57" fill="none" xmlns="http://www.w3.org/2000/svg"><path d="M181.826 48.291c16.727-8.802 20.732-19.91 15.596-23.063-7.586-4.236-28.46 3.342-26.057 24.146-1.036.611-3.11 1.741-3.11 1.741l1.367 4.189s2.921-1.741 3.675-2.26c2.45 1.978 3.722 3.06 7.492 3.154 8.057.189 14.983-8.754 14.983-8.754l-2.026-3.154c.047 0-8.811 8.52-11.92 4.001Zm2.214-12.755c2.403-4.236 6.267-7.53 8.199-6.213 1.885 1.318-1.932 8.001-10.932 15.155-.377-.658.33-4.706 2.733-8.943ZM30.292 56.197c-1.226 0-3.063-.47-4.383-1.835-4.005-4.19-.235-18.356.566-21.416.094-.283-.142-.565-.424-.565a.495.495 0 0 0-.424.236c-1.697 3.435-10.885 23.58-18.99 23.58h-.47c-7.87-.753-6.833-11.578-4.382-18.168H14.46c-1.037 2.825-1.367 4.613-1.367 5.554.047.66.613 1.036 1.131.753 1.32-.706 3.487-3.53 5.372-6.777C22.988 31.582 27.417 22.64 35.003 0h13.9c-4.099 12.614-7.444 24.004-9.282 37.042a.756.756 0 0 0 1.272.66C44.851 33.981 59.317 2.73 60.212 0h13.947S60.448 37.89 61.58 44.243c.188 1.177 1.46 1.318 2.073.518.8-.989 1.932-2.448 2.732-3.342l1.98 1.977c-3.959 4.895-10.414 13.697-16.822 12.66-.99-.187-1.979-.752-2.686-1.458-6.69-5.789 2.64-25.181 4.288-29.747.377-.988.707-1.93.943-2.494.094-.282-.095-.612-.425-.612a.495.495 0 0 0-.424.235c-.33.706-1.177 2.542-1.508 3.154-4.098 8.519-13.617 31.064-21.438 31.064ZM161.28 9.696c-6.172-.141-10.13 3.671-10.13 3.671l.094 3.718s4.429-4.47 9.047-2.541c3.016 1.224 5.278 4.753 3.581 10.92-.094.376-.282 1.082-.377 1.459-1.319-2.825-6.22-4.99-13.052.188-4.995 3.765-6.266 7.766-7.256 11.014-1.413 4.753-1.32 9.884-.236 12.943.707 2.024 2.592 4.283 5.231 5.271 11.308 4.283 20.213-13.178 22.947-25.745 1.743-7.955 3.062-20.663-9.849-20.898Zm-6.078 38.218c-1.272.847-3.439 1.224-3.769-2.683-.425-5.6 3.675-12.19 4.9-13.743 2.121-2.589 4.995-2.73 4.947 1.318-.047 4.706-2.921 13.038-6.078 15.108ZM121.09 6.448c-6.691-2.306-30.345 5.178-38.12 31.3-.942.282-5.513 1.412-5.513 1.412l-1.978 5.366 7.02-2.166s-.754 13.414 11.026 13.838c9.283-.33 14.136-13.979 11.167-23.251-.565.282-8.01 3.86-8.01 3.86s1.555 9.084-1.744 11.155c-.518.329-1.178.282-1.602-.33-.942-1.318-1.555-4.8-.518-9.414 17.01-8.848 28.648-24.38 29.355-29.746.236-1.365-.848-1.93-1.083-2.024Zm-21.157 23.11c-3.157 2.4-5.607 3.624-5.607 3.624s.895-2.07 1.555-3.247c1.838-3.06 10.601-14.873 17.952-17.038.283-.095.518.141.471.423 0 2.589-9.329 12.426-14.371 16.238Zm35.056 19.298a.36.36 0 0 0 .519.423c1.131-.706 2.638-1.93 2.638-1.93l.943 2.871c-.566.613-5.089 4.19-7.916 5.508-3.063 1.412-5.843-.471-6.267-2.73-.424-2.636.895-6.072.895-6.072s-4.853 5.554-9.8 8.237c-1.367.753-2.404 1.035-3.252 1.035-3.345-.094-4.382-3.295-4.005-5.036.424-2.07 4.948-15.956 5.513-18.215.047-.235-.189-.47-.471-.424-1.366.377-4.947 2.73-4.947 2.73v-3.86s10.365-7.06 12.957-7.812c2.403-.66 4.476.705 3.864 3.436-.283 1.882-7.02 18.214-7.02 20.286 0 .376.329.423.423.376 1.932-.565 5.466-3.577 8.152-7.86 2.544-4.001 4.24-9.037 6.361-15.297h8.999c0 .047-6.832 20.898-7.586 24.334Zm94.002-19.58c.189 2.918-2.591 18.309-13.9 24.475-3.345 1.835-5.607 2.541-7.633 2.447-4.806-.141-7.068-4.047-7.586-5.318-5.513-13.65 10.601-26.311 10.601-26.311h9.33s-14.23 11.343-12.251 21.416c1.555 6.119 7.257 3.153 10.414-3.766.612-1.364 4.429-10.449 2.026-10.59-2.121-.141-4.948 4.33-4.948 4.33l-1.979-3.012c1.555-1.977 5.89-7.154 10.743-8.802.801-.235 5.136-1.129 5.183 5.13ZM72.604 48.76a3.699 3.699 0 0 1 3.723 3.719 3.698 3.698 0 0 1-3.723 3.718 3.698 3.698 0 0 1-3.722-3.718c0-2.07 1.696-3.718 3.722-3.718Z" fill="#E31235"/></svg>