<svg width="90" height="35" fill="none" xmlns="http://www.w3.org/2000/svg"><path d="M42.275.85C47.294.51 52.318.195 57.346.047c6.287-.196 12.57.25 18.83.8 3.695 10.386 3.404 21.971-.004 32.394-5.693.527-11.412.905-17.132.83-5.595-.093-11.183-.435-16.765-.836.56-2.868 1.145-5.733 1.705-8.605 7.7.402 15.468 1.023 23.146.007.192-1.15.35-2.309.468-3.47-5.183-.006-10.366 0-15.546-.003-.004-2.75-.004-5.504 0-8.253 5.203-.003 10.403.003 15.607-.003a59.284 59.284 0 0 0-.439-3.45c-7.72-.894-15.495-.472-23.23 0-.573-2.868-1.144-5.736-1.71-8.608ZM0 .85c12.624.004 25.248 0 37.872.004.003 10.798.003 21.593-.003 32.391H25.747c-.007-7.745.004-15.492-.003-23.237-4.532-.003-9.064 0-13.592 0-.01 7.745.003 15.492-.007 23.24-4.05-.003-8.096-.003-12.145-.003V.85Zm83.728.004c4.015-.004 8.031-.004 12.046 0 .004 3.897-.003 7.794.004 11.695h4.481c3.236-3.893 6.456-7.805 9.695-11.7 4.63 0 9.26.005 13.889 0-4.535 5.073-9.091 10.125-13.626 15.2 4.839 5.73 9.675 11.46 14.507 17.192-4.953.004-9.908.008-14.865 0-3.242-4.062-6.478-8.132-9.731-12.191-1.452.003-2.902 0-4.354.006 0 4.063.004 8.126-.003 12.19h-12.04c-.007-10.796-.003-21.594-.003-32.392Z" fill="#1D2172"/></svg>