<svg width="300" height="46" fill="none" xmlns="http://www.w3.org/2000/svg"><path d="m134.165 13.77 6.261-4.62h-20.962v27.677h20.962v-4.62h-14.973V25.14h12.795v-4.62h-12.795v-6.75h8.712ZM103.63 19.93h-7.26v-6.16h11.615l6.262-4.62H90.381v27.677h12.477c6.988 0 11.026-3.17 11.026-8.697 0-5.3-3.63-8.2-10.254-8.2Zm-.998 12.277H96.37V24.55h6.262c3.811 0 5.58 1.269 5.58 3.85 0 2.583-1.905 3.806-5.58 3.806ZM157.395 9.15h-11.388v27.677h5.989v-7.836h5.445c7.259 0 11.797-3.806 11.797-9.921 0-6.115-4.538-9.92-11.843-9.92Zm-.136 15.22h-5.308v-10.6h5.308c3.857 0 5.944 1.902 5.944 5.3 0 3.397-2.087 5.3-5.944 5.3ZM80.127 30.849a10.833 10.833 0 0 1-5.172 1.314c-5.4 0-9.301-3.85-9.301-9.15 0-5.301 3.902-9.151 9.301-9.151 1.951-.046 3.857.588 5.445 1.721l4.31-3.171-.272-.272c-2.496-2.22-5.853-3.352-9.664-3.352-4.13 0-7.895 1.404-10.618 3.941-2.722 2.628-4.264 6.297-4.174 10.102a14.29 14.29 0 0 0 4.174 10.283c2.859 2.672 6.67 4.167 10.572 4.077 4.31 0 8.076-1.495 10.617-4.213l-3.856-2.854-1.362.725ZM241.243 9.195v27.678h5.99V25.548h12.749v11.325h5.989V9.195h-5.989v11.37h-12.749V9.195h-5.99Zm-10.299 27.678h6.307L225.545 9.195h-6.08l-11.933 27.678h6.035l2.404-5.572h12.704l2.269 5.572ZM217.786 26.68l4.628-11.098 4.356 11.098h-8.984Zm61.615-.996h3.721l9.165 11.143H300l-12.25-14.314 10.708-13.364h-6.852l-8.893 11.869h-3.312V9.149h-5.989v27.678h5.989V25.684Zm-91.651-5.708v-6.16h15.653V9.194h-21.642v27.678h12.477c6.987 0 11.025-3.171 11.025-8.698 0-5.3-3.629-8.2-10.254-8.2h-7.259Zm0 12.276v-7.656h6.261c3.811 0 5.581 1.269 5.581 3.85 0 2.583-1.86 3.851-5.581 3.851h-6.261v-.045ZM41.243 8.969c1.09 1.404 1.996 2.944 2.768 4.575L23.049 28.991l-8.802-5.526V16.85l8.757 5.481 18.24-13.363Z" fill="#21A038"/><path d="M5.309 23.012c0-.317 0-.59.045-.906l-5.309-.272c0 .362-.045.77-.045 1.133 0 6.341 2.586 12.094 6.76 16.262l3.766-3.76A17.397 17.397 0 0 1 5.31 23.012Z" fill="url(#a)"/><path d="M23.004 5.346c.317 0 .59 0 .907.045l.273-5.3c-.363 0-.772-.045-1.135-.045-6.352 0-12.114 2.582-16.288 6.75l3.766 3.76a17.532 17.532 0 0 1 12.477-5.21Z" fill="url(#b)"/><path d="M23.004 40.679c-.318 0-.59 0-.908-.046l-.272 5.3c.363 0 .771.046 1.134.046 6.352 0 12.115-2.582 16.289-6.75l-3.766-3.76c-3.176 3.262-7.577 5.21-12.477 5.21Z" fill="url(#c)"/><path d="m32.986 8.426 4.492-3.307C33.53 1.948 28.494 0 23.004 0v5.3c3.72.045 7.169 1.178 9.982 3.126Z" fill="url(#d)"/><path d="M46.053 23.011a24.86 24.86 0 0 0-.363-4.122l-4.946 3.67v.452c0 5.21-2.268 9.876-5.853 13.092l3.585 3.94a22.93 22.93 0 0 0 7.577-17.032Z" fill="#21A038"/><path d="M23.004 40.68a17.59 17.59 0 0 1-13.113-5.845l-3.947 3.58a22.91 22.91 0 0 0 17.06 7.564v-5.3Z" fill="url(#e)"/><path d="M11.162 9.92 7.577 5.979C2.904 10.192 0 16.262 0 23.012h5.309c0-5.165 2.268-9.876 5.853-13.092Z" fill="url(#f)"/><defs><linearGradient id="a" x1="621.131" y1="1696.84" x2="79.341" y2="133.264" gradientUnits="userSpaceOnUse"><stop offset=".144" stop-color="#F2E913"/><stop offset=".304" stop-color="#E7E518"/><stop offset=".582" stop-color="#CADB26"/><stop offset=".891" stop-color="#A3CD39"/></linearGradient><linearGradient id="b" x1="158.081" y1="613.557" x2="1534.79" y2="89.758" gradientUnits="userSpaceOnUse"><stop offset=".059" stop-color="#0FA8E0"/><stop offset=".538" stop-color="#0099F9"/><stop offset=".923" stop-color="#0291EB"/></linearGradient><linearGradient id="c" x1="-9.347" y1="634.308" x2="1631.48" y2="264.056" gradientUnits="userSpaceOnUse"><stop offset=".123" stop-color="#A3CD39"/><stop offset=".285" stop-color="#86C339"/><stop offset=".869" stop-color="#21A038"/></linearGradient><linearGradient id="d" x1="-86.066" y1="339.105" x2="1278.48" y2="759.455" gradientUnits="userSpaceOnUse"><stop offset=".057" stop-color="#0291EB"/><stop offset=".79" stop-color="#0C8ACB"/></linearGradient><linearGradient id="e" x1="140.921" y1="478.786" x2="1606.18" y2="1025.38" gradientUnits="userSpaceOnUse"><stop offset=".132" stop-color="#F2E913"/><stop offset=".298" stop-color="#EBE716"/><stop offset=".531" stop-color="#D9E01F"/><stop offset=".802" stop-color="#BBD62D"/><stop offset=".983" stop-color="#A3CD39"/></linearGradient><linearGradient id="f" x1="403.929" y1="1773.25" x2="989.797" y2="251.634" gradientUnits="userSpaceOnUse"><stop offset=".07" stop-color="#A3CD39"/><stop offset=".26" stop-color="#81C55F"/><stop offset=".922" stop-color="#0FA8E0"/></linearGradient></defs></svg>