<svg width="195" height="69" fill="none" xmlns="http://www.w3.org/2000/svg"><path d="M56.55 9.176H10.424L13.747 0h46.126L56.55 9.176Zm-1.662 4.588H8.742L5.419 22.94h46.125l3.344-9.176Zm-4.984 13.722H3.757L.435 36.662h46.084l3.385-9.176Z" fill="#009FDF"/><path d="M166.453 59.623h8.308a7.22 7.22 0 0 0 3.486-.444 7.257 7.257 0 0 0 2.869-2.038 7.996 7.996 0 0 0 1.62-5.234 7.29 7.29 0 0 0-.638-3.488 7.252 7.252 0 0 0-2.208-2.769 8.28 8.28 0 0 0-5.212-1.334h-8.225v15.307ZM155.55 68.86V13.764h35.7l-3.136 9.238h-21.661v12.2h8.827c7.123 0 10.82 1.71 13.374 3.9a16.22 16.22 0 0 1 4.202 5.903 16.29 16.29 0 0 1 1.219 7.152c.14 2.634-.377 5.26-1.505 7.643a15.814 15.814 0 0 1-4.954 5.996c-3.427 2.377-7.02 3.044-14.33 3.044l-17.736.021Zm-31.609 0v-45.88h-15.866v-9.217h44.049l-3.136 9.238h-14.04v45.88l-11.007-.02ZM79.976 35.828h6.23c1.274.087 2.554-.011 3.8-.292a6.005 6.005 0 0 0 3.168-2.398 6.047 6.047 0 0 0 .986-3.858 5.586 5.586 0 0 0-.92-3.848 5.545 5.545 0 0 0-3.233-2.263 15.06 15.06 0 0 0-4.154-.375h-5.877v13.034Zm0 9.53V59.81h7.6a8.137 8.137 0 0 0 5.878-1.626 7.197 7.197 0 0 0 2.285-5.673 7.864 7.864 0 0 0-1.454-4.713c-1.62-2.085-3.614-2.481-7.02-2.481l-7.29.041Zm17.57-5.818v.188a19.236 19.236 0 0 1 5.129 2.961 12.978 12.978 0 0 1 3.609 4.833 13.039 13.039 0 0 1 1.043 5.949c0 7.528-3.987 12.971-10.53 14.598-2.607.64-5.293.9-7.974.771h-19.75V13.764h17.57c2.79-.102 5.582.157 8.306.772 6.355 1.71 10.53 6.11 10.53 13.054a12.251 12.251 0 0 1-.836 4.847 12.21 12.21 0 0 1-2.674 4.12 13.316 13.316 0 0 1-4.32 2.941l-.104.042Z" fill="#0A2973"/></svg>