<svg width="16" height="15" fill="none" xmlns="http://www.w3.org/2000/svg"><path d="M12.667 2.614h-.734A3.263 3.263 0 0 0 10.774.738 3.382 3.382 0 0 0 8.667 0H7.333a3.381 3.381 0 0 0-2.107.738 3.263 3.263 0 0 0-1.16 1.876h-.733a3.372 3.372 0 0 0-2.356.958A3.238 3.238 0 0 0 0 5.88v5.852c.001.866.353 1.697.977 2.309A3.372 3.372 0 0 0 3.333 15h9.334a3.372 3.372 0 0 0 2.356-.958A3.239 3.239 0 0 0 16 11.733V5.881a3.239 3.239 0 0 0-.977-2.31 3.372 3.372 0 0 0-2.356-.957ZM7.333 1.307h1.334c.412.001.813.128 1.15.362.335.234.59.564.727.945H5.456c.137-.381.391-.711.728-.945.336-.234.737-.36 1.15-.362Zm-4 2.613h9.334c.53 0 1.039.207 1.414.575.375.367.586.866.586 1.386v1.278H1.333V5.881c0-.52.211-1.019.586-1.386a2.02 2.02 0 0 1 1.414-.575Zm9.334 9.773H3.333a2.02 2.02 0 0 1-1.414-.574 1.94 1.94 0 0 1-.586-1.386V8.466h6v.653c0 .174.07.34.196.462a.674.674 0 0 0 .942 0 .647.647 0 0 0 .196-.462v-.653h6v3.267c0 .52-.211 1.018-.586 1.386a2.02 2.02 0 0 1-1.414.574Z" fill="#fff"/></svg>