<svg width="24" height="24" fill="none" xmlns="http://www.w3.org/2000/svg"><path d="M14.548.17 1.83 12.887A6.232 6.232 0 0 0 0 17.308c0 1.6.61 3.2 1.829 4.418a6.226 6.226 0 0 0 4.42 1.83c1.6 0 3.202-.61 4.422-1.83l11.957-11.96A4.669 4.669 0 0 0 24 6.454a4.681 4.681 0 0 0-4.687-4.687c-1.201 0-2.4.458-3.315 1.37L5.663 13.475a3.03 3.03 0 0 0-.888 2.15 3.033 3.033 0 0 0 3.036 3.038 3.03 3.03 0 0 0 2.149-.89l9.046-9.046a.577.577 0 0 0 0-.82.586.586 0 0 0-.41-.17.587.587 0 0 0-.41.17l-9.049 9.047a1.874 1.874 0 0 1-1.326.548 1.874 1.874 0 0 1-1.878-1.878c0-.48.184-.962.55-1.329L16.82 3.956a3.521 3.521 0 0 1 2.495-1.03 3.507 3.507 0 0 1 2.493 1.03l.001.001a3.518 3.518 0 0 1 1.032 2.495c0 .903-.344 1.807-1.032 2.494L9.85 20.907a5.084 5.084 0 0 1-3.6 1.49 5.09 5.09 0 0 1-3.6-1.49l-.003-.001a5.08 5.08 0 0 1-1.487-3.599 5.082 5.082 0 0 1 1.487-3.598L15.366.989a.578.578 0 0 0 0-.82.578.578 0 0 0-.818 0Z" fill="#222126" fill-opacity=".5"/></svg>