<svg width="28" height="17" fill="none" xmlns="http://www.w3.org/2000/svg"><path d="M14 2.844c-2.199 0-3.987 1.892-3.987 4.218 0 2.327 1.788 4.22 3.987 4.22s3.987-1.893 3.987-4.22c0-2.326-1.788-4.218-3.987-4.218Zm0 6.562c-1.222 0-2.215-1.051-2.215-2.344 0-1.292.993-2.343 2.215-2.343s2.215 1.051 2.215 2.343c0 1.293-.993 2.344-2.215 2.344Z" fill="#222126"/><path d="M14 9.375c-3.274 0-5.937 2.818-5.937 6.281v.406c0 .518.397.938.886.938.49 0 .886-.42.886-.938v-.406c0-2.43 1.869-4.406 4.165-4.406 2.297 0 4.165 1.977 4.165 4.406v.406c0 .518.396.938.886.938s.886-.42.886-.938v-.406c0-3.463-2.664-6.281-5.937-6.281ZM22.063 0c-2.198 0-3.987 1.893-3.987 4.219 0 2.326 1.789 4.218 3.987 4.218 2.2 0 3.988-1.892 3.988-4.218S24.26 0 22.063 0Zm0 6.562c-1.221 0-2.215-1.05-2.215-2.343s.994-2.344 2.215-2.344c1.222 0 2.215 1.051 2.215 2.344 0 1.292-.993 2.343-2.215 2.343Z" fill="#222126"/><path d="M22.063 6.531c-2.715 0-5.084 1.947-5.76 4.736-.122.501.163 1.012.637 1.14.474.13.957-.172 1.078-.674.476-1.959 2.14-3.327 4.045-3.327 2.297 0 4.165 1.977 4.165 4.406v.407c0 .518.396.937.886.937s.886-.42.886-.937v-.407c0-3.463-2.663-6.28-5.937-6.28ZM5.937 0C3.738 0 1.949 1.893 1.949 4.219c0 2.326 1.79 4.218 3.988 4.218S9.924 6.545 9.924 4.22 8.135 0 5.937 0Zm0 6.562c-1.222 0-2.215-1.05-2.215-2.343s.993-2.344 2.215-2.344c1.221 0 2.215 1.051 2.215 2.344 0 1.292-.994 2.343-2.215 2.343Z" fill="#222126"/><path d="M11.668 11.236C10.996 8.466 8.64 6.53 5.937 6.53 2.663 6.531 0 9.35 0 12.812v.407c0 .518.397.937.886.937.49 0 .886-.42.886-.937v-.407c0-2.429 1.868-4.406 4.165-4.406 1.893 0 3.544 1.355 4.015 3.296.121.501.603.802 1.079.675.473-.129.76-.64.637-1.141Z" fill="#222126"/></svg>