<svg width="19" height="16" fill="none" xmlns="http://www.w3.org/2000/svg"><path d="M18.462 9.08a3.609 3.609 0 0 0-3.198-2.64 3.933 3.933 0 0 0 .922-2.537C16.186 1.75 14.473 0 12.368 0c-1.977 0-3.608 1.544-3.8 3.514a3.728 3.728 0 0 0-1.936-.545c-2.105 0-3.818 1.751-3.818 3.903 0 .969.349 1.854.922 2.537a3.61 3.61 0 0 0-3.198 2.64l-.47 1.692c-.15.54-.047 1.106.284 1.554A1.71 1.71 0 0 0 1.737 16h9.79a1.71 1.71 0 0 0 1.385-.705 1.791 1.791 0 0 0 .285-1.554l-.198-.71h4.264a1.71 1.71 0 0 0 1.385-.705 1.791 1.791 0 0 0 .285-1.554l-.47-1.692Zm-7.04 3.349.47 1.691a.386.386 0 0 1-.365.493h-9.79a.387.387 0 0 1-.364-.493l.47-1.691c.27-.974 1.151-1.654 2.142-1.654h5.294c.99 0 1.871.68 2.142 1.654Zm.946-11.042c1.357 0 2.461 1.129 2.461 2.516s-1.104 2.516-2.461 2.516c-1.357 0-2.461-1.13-2.461-2.516 0-1.387 1.104-2.516 2.46-2.516ZM9.094 6.872c0 1.387-1.105 2.516-2.462 2.516-1.357 0-2.461-1.129-2.461-2.516s1.104-2.516 2.461-2.516c1.357 0 2.462 1.129 2.462 2.516Zm3.483 4.772a3.594 3.594 0 0 0-3.049-2.235 3.922 3.922 0 0 0 .807-1.603h4.68c.99 0 1.871.68 2.142 1.654l.47 1.691a.386.386 0 0 1-.364.493h-4.686Z" fill="#fff"/></svg>