<svg width="28" height="28" fill="none" xmlns="http://www.w3.org/2000/svg"><path d="M4.27 5.38A12.95 12.95 0 0 0 1 14c0 3.555 1.428 6.776 3.74 9.123a4.2 4.2 0 0 1-2.17 2.003 4.175 4.175 0 0 0 1.569.305c.902 0 1.736-.286 2.42-.771A12.939 12.939 0 0 0 14 27c7.18 0 13-5.82 13-13S21.18 1 14 1a12.95 12.95 0 0 0-8.62 3.27m3.694 8.793-1.955-.295L6.235 11l-.885 1.768-1.955.295 1.409 1.387-.324 1.95 1.755-.91 1.755.91-.325-1.95 1.41-1.387Zm15.53 0-1.954-.295L21.764 11l-.884 1.768-1.955.295 1.409 1.387-.325 1.95 1.755-.91 1.755.91-.324-1.95 1.409-1.387Zm-7.765 0-1.955-.295L14 11l-.884 1.768-1.955.295 1.408 1.387-.324 1.95L14 15.49l1.755.91-.324-1.95 1.408-1.387Z" stroke="#fff" stroke-width="1.2" stroke-miterlimit="10" stroke-linecap="round" stroke-linejoin="round"/></svg>