<svg width="17" height="13" fill="none" xmlns="http://www.w3.org/2000/svg"><path d="M15.61 8.818V3.602C15.61 1.739 14.094 0 12.056 0h-7.11C2.907 0 1.389 1.739 1.389 3.602v5.216C-.822 9.605-.258 13 2.126 13h12.748c2.385 0 2.948-3.395.737-4.182ZM4.946 1.45h7.11c1.215 0 2.125 1.035 2.125 2.153v5.05h-2.948c-.607 0-.91.332-1.258.746H7.026c-.347-.414-.65-.745-1.258-.745H2.82V3.602c0-1.118.91-2.153 2.125-2.153Zm9.929 10.102H2.126c-.954 0-.954-1.45 0-1.45h3.642c.347.415.65.746 1.258.746h2.948c.607 0 .91-.331 1.258-.745h3.642c.954 0 .954 1.449 0 1.449Z" fill="#fff"/></svg>