<svg width="76" height="70" fill="none" xmlns="http://www.w3.org/2000/svg"><path d="M14.668 65.888C14.192 67.2 13.018 69 10.713 69H4.179C2.44 69 1 67.559 1 65.758V4.242C1 2.442 2.441 1 4.179 1h27.014c.878 0 1.796.396 2.376 1.073.546.637.847 1.581.424 2.864-.13.393-4.965 15.643-9.762 30.78L17.647 56.49l-2.164 6.829-.606 1.911-.16.504-.04.129-.008.025Zm40.808 0C55 67.2 53.825 69 51.52 69h-6.534c-1.737 0-3.178-1.441-3.178-3.242V4.242c0-1.8 1.44-3.242 3.178-3.242H72c.878 0 1.797.396 2.377 1.073.546.637.847 1.581.424 2.864-.13.393-4.965 15.643-9.763 30.78L58.454 56.49l-2.164 6.829-.605 1.911-.16.504-.04.129-.009.025Z" stroke="#49A0C1" stroke-width="2"/></svg>