<svg width="18" height="18" viewBox="0 0 18 18" fill="none" xmlns="http://www.w3.org/2000/svg">
<path fill-rule="evenodd" clip-rule="evenodd" d="M1.63638 11.4545V15.5455C1.63638 15.7607 1.72118 15.9677 1.87559 16.1201L1.87952 16.1239C2.03305 16.2796 2.24002 16.3637 2.45447 16.3637H15.5455C15.7599 16.3637 15.9669 16.2796 16.1166 16.1278L16.1204 16.1239C16.2788 15.9677 16.3636 15.7607 16.3636 15.5455V11.4545H18V15.5455C18 16.1959 17.7424 16.8207 17.2769 17.2817C16.8222 17.7403 16.1963 18 15.5455 18H2.45447C1.80338 18 1.17714 17.7401 0.721722 17.2802C0.257343 16.8199 0 16.1956 0 15.5455V11.4545H1.63638ZM8.18188 11.1157V0H9.81809V11.1157L13.3305 7.60328L14.4875 8.76034L9.57857 13.6695C9.25896 13.989 8.74097 13.989 8.42136 13.6695L3.51236 8.76034L4.66942 7.60328L8.18188 11.1157Z" fill="white"/>
</svg>
