<svg width="20" height="20" viewBox="0 0 20 20" fill="none" xmlns="http://www.w3.org/2000/svg">
<path d="M15.7602 0.752034L5.42779 11.0845C4.19619 12.3161 4.23978 13.4859 4.23978 15.0917C4.23978 15.4623 4.53769 15.7602 4.90463 15.7602C6.52134 15.7602 7.67666 15.8074 8.9119 14.5722L19.2443 4.23977C21.5223 1.96184 18.0636 -1.55133 15.7602 0.752034ZM18.6485 8.29427V12.7302H15.0772C13.7729 12.7302 12.7157 13.7875 12.7157 15.0917V18.663H4.05813C2.55767 18.663 1.33333 17.4423 1.33333 15.9419V4.07629C1.33333 2.5722 2.55767 1.35149 4.05813 1.35149H11.7203C12.5995 1.35149 12.5995 0.0181561 11.7203 0.0181561H4.05813C1.8238 0.0181561 0 1.84195 0 4.07629V15.9419C0 18.1762 1.8238 20 4.05813 20L13.6712 19.9964C14.7502 19.9964 15.7784 19.5713 16.5413 18.812L18.7902 16.5558C19.5531 15.7929 19.9818 14.7684 19.9818 13.6894V8.29427C19.9818 7.41507 18.6485 7.4187 18.6485 8.29427ZM15.5967 17.8674C15.1281 18.336 14.6739 18.5068 14.049 18.6412V15.0917C14.049 14.5286 14.5104 14.0636 15.0772 14.0636H18.6267C18.4886 14.6957 18.3215 15.1426 17.8529 15.6149L15.5967 17.8674ZM18.3034 3.29518L7.97094 13.6276C7.23706 14.3615 6.53588 14.4232 5.57312 14.4269C5.57312 13.4641 5.63851 12.7593 6.36876 12.0291L16.7012 1.69663C17.7838 0.613978 19.3279 2.26702 18.3034 3.29518Z" fill="white"/>
</svg>
