<svg width="22" height="22" viewBox="0 0 22 22" fill="none" xmlns="http://www.w3.org/2000/svg">
<path d="M12.8333 9.77781H17.7221C18.0599 9.77781 18.3332 9.50447 18.3332 9.16668C18.3332 8.82889 18.0599 8.55555 17.7221 8.55555H14.3085L20.5987 2.26544C20.8374 2.0267 20.8374 1.63998 20.5987 1.40131C20.3599 1.16257 19.9732 1.16257 19.7345 1.40131L13.4444 7.69142V4.27781C13.4444 3.94002 13.171 3.66668 12.8333 3.66668C12.4955 3.66668 12.2221 3.94002 12.2221 4.27781V9.16668C12.2221 9.50447 12.4955 9.77781 12.8333 9.77781Z" fill="white"/>
<path d="M20.2347 14.4405C18.8871 14.4405 17.5647 14.2298 16.3114 13.8157C15.686 13.6008 14.977 13.7673 14.5676 14.1833L12.0945 16.0507C9.22628 14.5193 7.45861 12.7528 5.94755 9.90556L7.7618 7.49513C8.23325 7.02367 8.40037 6.33675 8.19744 5.69462C7.78208 4.433 7.57079 3.11054 7.57079 1.76539C7.57085 0.791943 6.77948 0 5.80552 0H1.76527C0.79131 0 0 0.791943 0 1.76527C0 12.9229 9.07715 22 20.2347 22C21.2086 22 22 21.2081 22 20.2347V16.2058C21.9999 15.2324 21.2086 14.4405 20.2347 14.4405ZM20.7777 20.2347C20.7777 20.5343 20.5343 20.7778 20.2347 20.7778C9.75153 20.7778 1.22226 12.2491 1.22226 1.76533C1.22226 1.46575 1.46575 1.22226 1.76532 1.22226H5.80558C6.10516 1.22226 6.34865 1.46575 6.34865 1.76533C6.34865 3.24116 6.58022 4.69196 7.03494 6.07057C7.09819 6.27166 7.04686 6.48175 6.84158 6.69539L4.73967 9.47765C4.59885 9.66384 4.57736 9.9145 4.68358 10.1228C6.39878 13.4928 8.48155 15.5768 11.8761 17.3153C12.0826 17.4227 12.3344 17.4006 12.523 17.2592L15.3685 15.103C15.5141 14.9586 15.729 14.9102 15.9223 14.9741C17.3057 15.4312 18.7571 15.6628 20.2347 15.6628C20.5343 15.6628 20.7778 15.9063 20.7778 16.2059L20.7777 20.2347Z" fill="white"/>
</svg>
