<svg width="90" height="120" fill="none" xmlns="http://www.w3.org/2000/svg"><path fill-rule="evenodd" clip-rule="evenodd" d="M15.666 0H55.9L90 35.22v68.506c0 8.581-7.006 15.524-15.637 15.524H15.666C7.006 119.25 0 112.307 0 103.726V15.525C0 6.943 7.006 0 15.666 0Z" fill="#E5252A"/><path opacity=".302" fill-rule="evenodd" clip-rule="evenodd" d="M55.867 0v34.953h34.13L55.867 0Z" fill="#fff"/><path d="M17.41 88.975V67.193h9.352c2.315 0 4.15.626 5.533 1.907 1.383 1.252 2.075 2.95 2.075 5.066 0 2.116-.692 3.814-2.075 5.066-1.383 1.28-3.218 1.907-5.533 1.907h-3.729v7.836H17.41Zm5.623-12.574h3.098c.841 0 1.503-.179 1.954-.596.451-.387.692-.924.692-1.639s-.24-1.251-.692-1.639c-.45-.417-1.112-.596-1.954-.596h-3.098v4.47Zm13.652 12.574V67.193h7.788c1.534 0 2.977.209 4.33.656 1.354.447 2.587 1.073 3.669 1.937 1.082.834 1.954 1.966 2.586 3.397.601 1.43.932 3.069.932 4.916 0 1.818-.33 3.457-.932 4.887-.632 1.43-1.504 2.563-2.586 3.397-1.083.864-2.316 1.49-3.669 1.937-1.353.447-2.796.655-4.33.655h-7.788Zm5.503-4.737h1.624c.872 0 1.684-.09 2.435-.298a7.333 7.333 0 0 0 2.075-.984c.632-.447 1.143-1.072 1.504-1.907.36-.834.541-1.817.541-2.95 0-1.162-.18-2.145-.541-2.98-.361-.834-.872-1.46-1.504-1.906a7.329 7.329 0 0 0-2.075-.984c-.751-.208-1.563-.298-2.435-.298h-1.624v12.307Zm16.629 4.737V67.193h15.636v4.738H64.44v3.487h7.999v4.707h-8v8.85h-5.622Z" fill="#fff"/></svg>