<svg width="25" height="24" fill="none" xmlns="http://www.w3.org/2000/svg"><path d="M12.778 16a1.5 1.5 0 1 1 0 3 1.5 1.5 0 0 1 0-3Zm1-2c0-.562.409-1.226.929-1.513a4.022 4.022 0 0 0 2.009-4.223c-.283-1.613-1.607-2.938-3.222-3.221a4.034 4.034 0 0 0-3.289.874A3.995 3.995 0 0 0 8.777 8.98a1 1 0 1 0 2 0 2.002 2.002 0 0 1 2.371-1.967c.788.138 1.459.81 1.597 1.596a1.995 1.995 0 0 1-1.004 2.125c-1.156.637-1.963 1.98-1.963 3.264a1 1 0 1 0 2 0V14Zm11.097 5v-6.66c0-6.48-4.904-11.887-11.164-12.313A12.047 12.047 0 0 0 4.383 3.52a12.025 12.025 0 0 0-3.479 9.333C1.344 19.208 6.956 24 13.959 24h5.917c2.757 0 4.999-2.243 4.999-5Zm-11.3-16.977c5.216.354 9.3 4.885 9.3 10.315v6.66c0 1.655-1.346 3-3 3h-5.917c-6.036 0-10.687-3.903-11.06-9.284-.2-2.899.855-5.735 2.9-7.781a10.016 10.016 0 0 1 7.777-2.911Z" fill="#fff"/></svg>