<svg width="18" height="19" fill="none" xmlns="http://www.w3.org/2000/svg"><path d="M15.037 3.847c1.64 1.579 2.61 3.835 2.61 6.292.002 2.96-1.49 5.833-3.99 7.43-2.428 1.551-5.562 1.864-8.249.826C2.91 17.431.79 15.306.02 11.922c-.116-.51.291-.99.807-.99.386 0 .72.275.805.65.635 2.764 2.353 4.5 4.383 5.284 2.193.847 4.763.59 6.744-.678 1.833-1.17 3.202-3.214 3.242-6.056.04-2.975-1.736-5.506-4.45-6.652-2.449-1.033-5.24-.713-7.324.976l2.261.412c1.057.193.73 1.79-.247 1.616l-3.864-.691c-.47-.085-.724-.483-.654-.925L2.396.625c.156-.98 1.772-.738 1.62.248l-.297 1.92C7.239.376 12.018.936 15.037 3.847Z" fill="#fff"/></svg>