<svg width="16" height="16" fill="none" xmlns="http://www.w3.org/2000/svg"><path fill-rule="evenodd" clip-rule="evenodd" d="M15.707 14.074c-.106.106-.234.241-.37.384-.34.36-.763.807-1.028.989-1.396.954-3.265.497-4.586-.053-1.744-.727-3.642-2.066-5.346-3.77C2.671 9.919 1.333 8.02.607 6.278.056 4.956-.402 3.088.552 1.691c.181-.266.63-.689.989-1.029.144-.135.278-.263.384-.369a1.007 1.007 0 0 1 1.42 0l2.57 2.569a1.007 1.007 0 0 1 0 1.42l-.7.698a1.53 1.53 0 0 0-.27 1.808 10.265 10.265 0 0 0 4.266 4.266 1.528 1.528 0 0 0 1.807-.27l.698-.7a1.007 1.007 0 0 1 1.42 0l2.57 2.57a1.006 1.006 0 0 1 0 1.42Z" fill="#347D98"/></svg>