<svg width="288" height="69" fill="none" xmlns="http://www.w3.org/2000/svg"><path fill-rule="evenodd" clip-rule="evenodd" d="M35.982 19.466h-.01v-7.963h.004c0-.38.08-.767.252-1.135l.039-.082.005.002a2.726 2.726 0 0 1 2.48-1.571c3.42.007 6.626.914 9.39 2.492a18.907 18.907 0 0 1 6.886 6.754c.508.821.559 1.885.036 2.776l-.05.085-.003-.003c-.233.398-.57.743-1.003.989L47.04 25.79l-6.887 3.936a2.764 2.764 0 0 1-2.473.206 2.707 2.707 0 0 1-1.699-2.504v-7.963Zm1.433 43.993c.102-.008.203-.01.302-.009 1.38.031 2.544 1.087 2.667 2.48.13 1.494-.989 2.81-2.496 2.938-.388.034-.894.064-1.517.09-.63.028-1.136.042-1.518.042a34.923 34.923 0 0 1-24.644-10.106C3.902 52.651 0 44.026 0 34.5c0-9.526 3.902-18.151 10.209-24.394C16.516 3.86 25.229 0 34.853 0c.382 0 .889.013 1.518.04.623.027 1.13.057 1.517.091 1.507.13 2.625 1.444 2.496 2.938-.124 1.415-1.322 2.48-2.73 2.48-.079 0-.158-.002-.239-.01-.543-.046-.97-.076-1.28-.09-.302-.013-.73-.02-1.282-.02a29.426 29.426 0 0 0-20.766 8.514c-5.314 5.26-8.602 12.53-8.602 20.556 0 8.029 3.288 15.296 8.602 20.556a29.426 29.426 0 0 0 20.766 8.515c.552 0 .98-.007 1.282-.02.31-.013.737-.044 1.28-.09ZM47.69 28.173l6.967-3.982.002.003c.273-.156.575-.268.9-.323a2.75 2.75 0 0 1 2.938 1.31A18.476 18.476 0 0 1 61 34.474a18.635 18.635 0 0 1-2.496 9.333l-.007-.004a2.733 2.733 0 0 1-2.306 1.36 2.736 2.736 0 0 1-1.535-.36l-6.967-3.98.003-.005-6.814-3.895a2.694 2.694 0 0 1-.155-4.77l6.966-3.981ZM35.995 57.48v-7.963h.01v-7.964c0-1.125.696-2.09 1.686-2.498a2.757 2.757 0 0 1 2.416.159l.002-.004 6.967 3.981a3.7 3.7 0 0 1 .141.087l6.815 3.895c.432.246.77.59 1.003.989l.004-.003.05.085a2.684 2.684 0 0 1-.036 2.776 18.92 18.92 0 0 1-6.887 6.755 18.969 18.969 0 0 1-9.39 2.491 2.729 2.729 0 0 1-2.48-1.571l-.005.002-.038-.083A2.68 2.68 0 0 1 36 57.48h-.005Z" fill="#347D98"/><path fill-rule="evenodd" clip-rule="evenodd" d="M81.222 21.382v7.362c0 .028.006.044.02.05.012.007.026-.003.04-.03l4.992-7.382h2.919v14.1h-3.221v-7.784c0-.027-.007-.043-.02-.05-.014-.006-.027.004-.04.03l-5.053 7.805H78v-14.1h3.222Zm125.39 5.593h10.187v2.896h-10.187v-2.896Zm-104.073-5.593v14.1h-3.22v-3.62c0-.134-.068-.202-.202-.202h-4.268c-.12 0-.18.067-.18.202v3.62h-3.222v-14.1h3.221v6.86c0 .133.06.2.181.2h4.268c.134 0 .202-.067.202-.2v-6.86h3.22Zm14.977 0V24.6h-4.469c-.093 0-.141.048-.141.141v10.742h-3.221V24.74c0-.093-.046-.14-.141-.14h-4.489v-3.219h12.461Zm4.831 3.26c-.108 0-.161.053-.161.16v2.675c0 .12.053.181.161.181h6.544v3.199h-6.544c-.108 0-.161.06-.161.18v1.046c0 .107.053.161.161.161h8.092v3.218h-11.473v-14.08h11.473v3.26h-8.092Zm24.378 10.82h-3.423l-3.462-9.614c-.026-.094-.09-.14-.191-.14s-.165.046-.19.14l-3.463 9.614h-3.422l5.072-14.1h4.007l5.072 14.1Zm15.984 0h-3.423l-3.462-9.614c-.026-.094-.09-.14-.191-.14-.1 0-.164.046-.192.14l-3.462 9.614h-3.423l5.074-14.1h4.005l5.074 14.1Zm5.213-10.82c-.107 0-.16.053-.16.16v2.675c0 .12.053.181.16.181h6.541v3.199h-6.541c-.107 0-.16.06-.16.18v1.046c0 .107.053.161.16.161h8.092v3.218H164.54v-14.08h11.474v3.26h-8.092Zm16.105 3.78 6.119 7.06h-4.248l-4.106-4.747c-.067-.067-.141-.083-.222-.05-.08.034-.12.098-.12.191v4.607h-3.301v-14.1h3.301v4.606c0 .093.04.154.12.18.081.028.155.007.222-.06l4.106-4.727h4.248l-6.119 7.04Zm20.935-7.04V24.6h-4.47c-.094 0-.14.048-.14.141v10.742h-3.221V24.74c0-.093-.046-.14-.14-.14h-4.49v-3.219h12.461Zm13.809 0h11.796v14.06h-3.241V24.6h-5.335v10.843h-3.22v-14.06Zm20.976.04c.846 0 1.64.162 2.385.483a6.343 6.343 0 0 1 1.954 1.308c.555.55.996 1.197 1.317 1.94a5.94 5.94 0 0 1 .484 2.385c0 .75-.149 1.488-.444 2.212a6.56 6.56 0 0 1-1.228 1.951 5.996 5.996 0 0 1-2.033 1.468 5.989 5.989 0 0 1-2.435.503h-3.584v1.81h-3.2v-14.06h6.784Zm-.021 9.032a2.944 2.944 0 0 0 2.074-.834c.268-.262.48-.571.635-.926.153-.356.232-.734.232-1.137 0-.401-.079-.78-.232-1.136a3.104 3.104 0 0 0-.625-.936 2.88 2.88 0 0 0-2.063-.864h-3.362c-.148 0-.222.074-.222.22v5.412c0 .134.074.2.222.2h3.341Zm20.332 5.029h-3.422l-.523-1.429c-.028-.093-.087-.14-.181-.14h-6.079c-.081 0-.142.047-.182.14l-.502 1.429h-3.424l5.074-14.1h4.166l5.073 14.1Zm-9.079-5.049a.177.177 0 0 0 .02.181c.042.053.094.08.162.08h3.483c.173 0 .234-.087.18-.26l-1.731-4.828c-.04-.095-.107-.141-.201-.141-.095 0-.154.046-.182.14l-1.731 4.828Zm21.318-2.072c.349.389.615.824.796 1.308.181.483.271.985.271 1.508 0 .59-.111 1.143-.332 1.66a4.29 4.29 0 0 1-2.274 2.272 4.183 4.183 0 0 1-1.661.333h-7.549v-14.04h7.549c.605 0 1.168.11 1.69.331.524.221.98.54 1.37.956.348.388.621.838.815 1.347.195.51.292 1.053.292 1.63 0 1.032-.323 1.93-.967 2.695Zm-7.548-1.73c0 .12.066.181.2.181h4.026c.282 0 .531-.11.745-.331.215-.222.323-.486.323-.795a.966.966 0 0 0-.303-.775 1.06 1.06 0 0 0-.765-.312h-4.026c-.134 0-.2.061-.2.182v1.85Zm0 5.431c0 .12.066.181.2.181h4.128c.295 0 .551-.104.765-.312.215-.208.321-.465.321-.774a1.2 1.2 0 0 0-.332-.794.972.972 0 0 0-.734-.333h-4.148c-.134 0-.2.06-.2.181v1.851Zm22.464-8.59c.389.698.619 1.446.685 2.244.068.798.102 1.64.102 2.525v1.367h-.021a13.451 13.451 0 0 1-.191 1.75 5.14 5.14 0 0 1-.575 1.609 4.308 4.308 0 0 1-2.132 1.89c-.832.39-1.933.585-3.302.585-1.341 0-2.443-.195-3.302-.584a4.46 4.46 0 0 1-2.114-1.891 5.521 5.521 0 0 1-.684-2.252 30.34 30.34 0 0 1-.1-2.515v-1.367h.02c.026-.604.087-1.187.181-1.75.094-.564.288-1.1.583-1.61a4.464 4.464 0 0 1 2.114-1.89c.859-.389 1.961-.584 3.302-.584 1.369 0 2.47.195 3.302.584a4.31 4.31 0 0 1 2.132 1.89Zm-2.475 4.769c0-.645-.014-1.251-.04-1.82-.027-.57-.135-1.017-.322-1.339a1.27 1.27 0 0 0-.151-.21c-.074-.087-.206-.175-.392-.262a3.611 3.611 0 0 0-.766-.232c-.322-.067-.751-.1-1.288-.1-.523 0-.95.033-1.279.1a3.363 3.363 0 0 0-.764.232c-.181.087-.309.175-.383.261a1.212 1.212 0 0 0-.151.211c-.188.322-.296.759-.321 1.308-.028.55-.041 1.14-.041 1.77v.04c0 .644.013 1.25.041 1.82.025.57.133 1.017.321 1.338.026.04.078.107.151.202.074.093.202.184.383.27.181.088.436.165.764.232.329.067.756.101 1.279.101.537 0 .966-.034 1.288-.1a3.6 3.6 0 0 0 .766-.233c.186-.086.318-.177.392-.27.074-.095.123-.162.151-.202.187-.321.295-.758.322-1.307.026-.55.04-1.147.04-1.79v-.02Z" fill="#fff"/><path d="M79.244 44.109H78v7.966h1.244V48.69h1.446c.225 2.186 1.716 3.493 3.685 3.493 2.134 0 3.713-1.544 3.713-4.092 0-2.548-1.58-4.092-3.713-4.092-2.026 0-3.544 1.38-3.705 3.683h-1.426V44.11Zm7.611 3.983c0 1.94-1.063 2.995-2.48 2.995-1.422 0-2.48-1.054-2.48-2.995s1.058-2.995 2.48-2.995c1.417 0 2.48 1.054 2.48 2.995Zm5.295 3.983h1.244v-2.8h1.692c1.913 0 2.859-1.117 2.859-2.587 0-1.467-.938-2.58-2.855-2.58h-2.94v7.967Zm1.244-3.82V45.14h1.563c1.232 0 1.736.645 1.736 1.548 0 .902-.504 1.567-1.72 1.567h-1.579Zm8.731-4.146v7.966h1.144l4.192-5.842h.076v5.842h1.245v-7.966h-1.152l-4.196 5.85h-.077v-5.85h-1.232ZM112.694 54h1.192v-1.925h5.537v1.913h1.192v-2.932h-.934v-6.947h-5.086l-.193 3.364c-.125 2.217-.613 3.131-1.164 3.583h-.544V54Zm2.01-2.944c.471-.728.789-1.898.89-3.583l.129-2.33h2.766v5.913h-3.785Zm9.996-6.947v7.966h1.144l4.192-5.842h.076v5.842h1.245v-7.966h-1.153l-4.196 5.85h-.076v-5.85H124.7Zm11.358 0v2.63c-.004 1.777 1.112 2.477 2.916 2.477.793 0 1.477-.097 2.07-.26v3.119h1.232v-7.966h-1.232v3.82a8.706 8.706 0 0 1-2.07.256c-1.076 0-1.688-.35-1.688-1.447v-2.63h-1.228Zm10.851 7.966h5.219V51.04h-3.974v-2.439h3.656v-1.03h-3.656v-2.427h3.926v-1.035h-5.171v7.966Zm16.405-5.376c-.282-1.703-1.664-2.699-3.408-2.699-2.133 0-3.708 1.544-3.708 4.092 0 2.547 1.566 4.092 3.708 4.092 1.813 0 3.137-1.097 3.408-2.673l-1.257-.003c-.213 1.019-1.099 1.579-2.142 1.579-1.414 0-2.481-1.047-2.481-2.995 0-1.933 1.063-2.995 2.485-2.995 1.05 0 1.932.572 2.138 1.602h1.257Zm9.103 5.376h1.518l-3.423-4.4 3.298-3.566h-1.518l-3.117 3.364h-.407V44.11h-1.244v7.966h1.244v-3.571h.878l2.771 3.57Zm6.088 0 .758-2.108h3.221l.754 2.108h1.32l-2.967-7.966h-1.439l-2.967 7.966h1.32Zm1.12-3.12 1.216-3.4h.065l1.216 3.4h-2.497Zm14.346 3.12v-7.966h-2.94c-1.912 0-2.855 1.03-2.855 2.497 0 1.07.504 1.883 1.514 2.244l-1.827 3.225h1.418l1.674-3.015h1.772v3.015h1.244Zm-1.244-4.05h-1.578c-1.212 0-1.719-.52-1.719-1.419 0-.902.507-1.466 1.735-1.466h1.562v2.886Zm16.39 4.05h1.518l-3.423-4.4 3.298-3.566h-1.518l-3.117 3.364h-.407V44.11h-1.244v7.966h1.244v-3.571h.878l2.771 3.57Zm12.146-3.983c0-2.548-1.579-4.092-3.712-4.092-2.143 0-3.718 1.544-3.718 4.092 0 2.544 1.575 4.092 3.718 4.092 2.133 0 3.712-1.544 3.712-4.092Zm-1.231 0c0 1.94-1.063 2.995-2.481 2.995-1.422 0-2.481-1.054-2.481-2.995s1.059-2.995 2.481-2.995c1.418 0 2.481 1.054 2.481 2.995Zm5.504-3.983v7.966h1.185v-5.769h.076l2.431 5.757h.984l2.432-5.753h.077v5.765h1.184v-7.966h-1.512l-2.625 6.192h-.096l-2.625-6.192h-1.511Zm19.346 0h-6.362v7.966h1.24v-6.94h3.881v6.94h1.241v-7.966Zm5.321 7.966.757-2.108h3.222l.752 2.108h1.321l-2.968-7.966h-1.437l-2.968 7.966h1.321Zm1.12-3.12 1.216-3.4h.064l1.216 3.4h-2.496Zm8.845 3.12h1.244V48.6h4.112v3.474h1.248v-7.966h-1.248v3.462h-4.112v-3.462h-1.244v7.966Zm11.138-7.966v7.966h1.144l4.192-5.842h.076v5.842h1.245v-7.966h-1.153l-4.195 5.85h-.077v-5.85h-1.232ZM288 52.075v-7.966h-2.94c-1.912 0-2.855 1.03-2.855 2.497 0 1.07.503 1.883 1.514 2.244l-1.828 3.225h1.417l1.676-3.015H286.755v3.015H288Zm-1.245-4.05h-1.579c-1.212 0-1.719-.52-1.719-1.419 0-.902.507-1.466 1.736-1.466h1.562v2.886Z" fill="#fff"/></svg>