<svg width="50" height="50" fill="none" xmlns="http://www.w3.org/2000/svg"><mask id="a" style="mask-type:luminance" maskUnits="userSpaceOnUse" x="0" y="0" width="50" height="50"><path d="M37.879 0H12.12C5.427 0 0 5.427 0 12.121V37.88C0 44.573 5.427 50 12.121 50H37.88C44.573 50 50 44.573 50 37.879V12.12C50 5.427 44.573 0 37.879 0Z" fill="#fff"/></mask><g mask="url(#a)"><path d="M50 0H0v50h50V0Z" fill="#fff"/><path d="M50 25c13.807 0 25-11.193 25-25S63.807-25 50-25 25-13.807 25 0s11.193 25 25 25Z" fill="#ED143B"/><path d="M30.885 23.858H16.113v-5.845h14.772c.863 0 1.463.15 1.764.413.3.263.487.75.487 1.462v2.098c0 .75-.186 1.237-.487 1.5-.301.262-.901.375-1.764.375v-.003Zm1.013-11.356H9.848V37.5h6.265v-8.133h11.545l5.478 8.133h7.015l-6.04-8.17c2.227-.33 3.227-1.013 4.052-2.138.824-1.125 1.238-2.923 1.238-5.322v-1.875c0-1.423-.15-2.547-.414-3.41a5.682 5.682 0 0 0-1.35-2.285 6.105 6.105 0 0 0-2.326-1.387c-.9-.263-2.026-.413-3.413-.413v.002Z" fill="#100943"/></g></svg>