<svg width="70" height="70" fill="none" xmlns="http://www.w3.org/2000/svg"><path fill-rule="evenodd" clip-rule="evenodd" d="M70 35c0 19.34-15.66 35-35 35S0 54.34 0 35 15.66 0 35 0s35 15.66 35 35Z" fill="#05A1EC"/><path fill-rule="evenodd" clip-rule="evenodd" d="m28.58 36.252 13.99-8.02 2.638-1.498c.394-.227.773.257.44.544L32.203 38.25l-.637.515a.767.767 0 0 0-.258.454l-.136 1.165-.394 3.283c0 .03 0 .076-.03.106a.138.138 0 0 1-.107.046c-.045.015-.075 0-.106-.03a.243.243 0 0 1-.06-.106l-1.092-3.269-1.137-3.36a.715.715 0 0 1 .03-.468.716.716 0 0 1 .304-.333Zm20.873-14.043-.546.197L19.12 33.104a1.097 1.097 0 0 0-.515.379 1.025 1.025 0 0 0-.182.62c.015.227.09.439.242.605a.98.98 0 0 0 .546.333l7.715 2.104 1.425 4.206 1.44 4.222c.091.197.213.394.394.53.167.151.364.242.592.287.212.06.44.046.652-.015.212-.06.409-.166.575-.318l3.987-3.752L43.8 47.6c.97.65 2.319.166 2.561-.908l5.184-22.85c.258-1.12-.94-2.057-2.091-1.634Z" fill="#fff"/></svg>