<svg width="38" height="38" fill="none" xmlns="http://www.w3.org/2000/svg"><path fill-rule="evenodd" clip-rule="evenodd" d="M38 19c0 10.499-8.501 19-19 19S0 29.499 0 19 8.501 0 19 0s19 8.501 19 19Z" fill="#05A1EC"/><path fill-rule="evenodd" clip-rule="evenodd" d="m15.514 19.68 7.595-4.354 1.432-.814c.214-.123.42.14.239.296l-7.299 5.956-.346.279a.416.416 0 0 0-.14.247l-.074.632-.213 1.782c0 .017 0 .042-.017.058a.075.075 0 0 1-.058.025c-.024.008-.04 0-.057-.017a.132.132 0 0 1-.033-.057l-.593-1.775-.617-1.823a.389.389 0 0 1 .017-.255.389.389 0 0 1 .164-.18Zm11.331-7.624-.296.107-16.17 5.808a.595.595 0 0 0-.28.205.557.557 0 0 0-.098.337c.008.123.05.238.132.328.074.09.18.157.296.181l4.188 1.142.774 2.284.782 2.292c.049.106.115.213.214.287.09.082.197.131.32.156a.648.648 0 0 0 .354-.008.78.78 0 0 0 .313-.173l2.164-2.037 4.238 2.875c.527.354 1.259.09 1.39-.493l2.815-12.404c.14-.607-.51-1.117-1.136-.887Z" fill="#fff"/></svg>