<svg width="70" height="70" fill="none" xmlns="http://www.w3.org/2000/svg"><path d="M35 70c19.33 0 35-15.67 35-35S54.33 0 35 0 0 15.67 0 35s15.67 35 35 35Z" fill="#7460F3"/><path d="M48.553 21.087c-.924-.841-4.633-3.526-12.88-3.56 0 0-9.74-.588-14.48 3.756-2.641 2.627-3.577 6.476-3.672 11.246-.095 4.77-.225 13.712 8.436 16.143v3.699s-.06 1.497.936 1.809c1.197.368 1.908-.772 3.045-1.994.628-.68 1.493-1.67 2.145-2.42 5.924.496 10.486-.645 10.996-.806 1.196-.392 7.962-1.256 9.064-10.197 1.137-9.218-.545-15.049-3.59-17.676Zm-9.87 11.8a.42.42 0 0 1-.415-.393 2.877 2.877 0 0 0-.178-.956 1.78 1.78 0 0 0-.403-.68 1.787 1.787 0 0 0-.64-.415 3.2 3.2 0 0 0-.924-.173.417.417 0 0 1-.39-.426.438.438 0 0 1 .13-.276.463.463 0 0 1 .296-.104c.45.023.853.104 1.209.242.355.138.663.346.912.6.249.252.438.564.58.932.13.358.202.76.226 1.222a.406.406 0 0 1-.095.288.443.443 0 0 1-.285.138h-.023Zm4.585 6.325s-1.114-.922-1.647-1.314c-.51-.38-1.327-.875-1.777-1.129-.818-.46-1.647-.173-2.003.277l-.71.887c-.368.46-.925.38-1.079.346-1.054-.254-2.18-.9-3.33-1.982-1.16-1.083-1.86-2.224-2.108-3.41l-.024-.082c-.071-.483.012-.714.225-1.048l.036-.023c.486-.438 1.374-.968 1.493-1.475.355-.876-1.173-2.708-1.387-3.042 0 0-1.114-1.429-1.505-1.694-.426-.345-1.09-.541-1.753-.15l-.036.023c-1.92 1.268-2.606 1.982-2.417 3.066l.095.437c.972 2.973 2.844 6.142 5.64 8.965 2.76 2.788 5.758 4.459 8.697 5.623.77.242 1.564.034 2.382-.645l.011-.012a7.564 7.564 0 0 0 1.482-1.82l.011-.012c.356-.691.237-1.337-.296-1.786Zm-.178-4.736a.397.397 0 0 1-.403-.392 11.376 11.376 0 0 0-.165-1.843 8.624 8.624 0 0 0-.427-1.625 8.175 8.175 0 0 0-.71-1.394 7.386 7.386 0 0 0-.996-1.198 7.718 7.718 0 0 0-4.017-2.074 10.606 10.606 0 0 0-1.623-.15.427.427 0 0 1-.296-.116.424.424 0 0 1-.119-.288c0-.115.048-.207.13-.276a.383.383 0 0 1 .285-.127c1.232.012 2.37.22 3.412.634a8.724 8.724 0 0 1 2.808 1.82c.415.415.782.853 1.102 1.337.309.484.581 1.003.782 1.556.214.553.368 1.14.474 1.763.107.622.166 1.279.178 1.97a.397.397 0 0 1-.118.276.383.383 0 0 1-.285.127h-.012Zm-2.227-.864h-.012a.407.407 0 0 1-.284-.127.425.425 0 0 1-.119-.288 5.369 5.369 0 0 0-.296-1.982 4.626 4.626 0 0 0-1.694-2.247 5.073 5.073 0 0 0-.853-.483 6.252 6.252 0 0 0-.996-.323A7.093 7.093 0 0 0 35.472 28a.43.43 0 0 1-.285-.15.311.311 0 0 1-.094-.265v-.023c0-.104.059-.208.13-.265.083-.07.178-.115.284-.104h.024c.9.07 1.706.254 2.417.565.711.31 1.327.749 1.837 1.302a5.51 5.51 0 0 1 1.137 1.878c.249.691.367 1.463.344 2.281a.397.397 0 0 1-.403.392Zm8.709 4.482c-.925 7.478-6.422 7.94-7.43 8.262-.426.138-4.43 1.129-9.455.806l-5.462 5.877v-6.775l-.047-.012c-7.323-2.016-7.074-9.621-6.991-13.608.083-3.975.83-7.247 3.069-9.437 4.016-3.63 12.287-3.088 12.287-3.088 6.979.035 10.332 2.132 11.102 2.823 2.571 2.201 3.886 7.455 2.927 15.152Z" fill="#fff"/></svg>