<svg width="50" height="50" fill="none" xmlns="http://www.w3.org/2000/svg"><rect width="50" height="50" rx="12" fill="#4169E1"/><path d="M37.871 34.955c-.675.102-3.976 0-4.147 0a3.119 3.119 0 0 1-2.291-.98c-.696-.723-1.318-1.52-1.998-2.277a5.702 5.702 0 0 0-.652-.635c-.543-.452-1.08-.35-1.336.342-.2.747-.34 1.512-.417 2.286-.045.7-.456 1.138-1.184 1.187-.45.025-.901.034-1.347.022a9.678 9.678 0 0 1-4.664-1.244 13.055 13.055 0 0 1-3.989-3.765c-1.758-2.426-3.164-5.09-4.418-7.837-.066-.137-1.353-3.091-1.385-3.23-.116-.468 0-.915.356-1.068.227-.094 4.467 0 4.538 0a1.41 1.41 0 0 1 .879.3 1.6 1.6 0 0 1 .544.804 24.408 24.408 0 0 0 3.185 6.03c.186.244.404.459.646.637.346.253.672.165.815-.265a8.049 8.049 0 0 0 .295-1.836c.024-1.235 0-2.05-.063-3.282-.042-.791-.3-1.486-1.382-1.708-.332-.063-.36-.358-.147-.655.445-.614 1.054-.711 1.737-.748 1.018-.063 2.035-.02 3.053 0h.222c.442-.002.884.047 1.318.145.256.056.489.2.663.41.174.21.281.476.304.757.052.312.075.629.066.945-.026 1.35-.087 2.696-.1 4.045a7.468 7.468 0 0 0 .134 1.591c.145.718.602.897 1.055.379a17.78 17.78 0 0 0 1.611-2.146 22.402 22.402 0 0 0 2.11-4.427c.294-.8.526-.976 1.317-.976h4.498c.268-.005.534.033.791.114a.664.664 0 0 1 .25.134.726.726 0 0 1 .179.231.78.78 0 0 1 .043.588c-.221 1.065-.754 1.973-1.318 2.847-.915 1.4-1.88 2.764-2.816 4.141a5.75 5.75 0 0 0-.324.57c-.354.686-.327 1.07.184 1.642.818.905 1.69 1.756 2.479 2.69a15.627 15.627 0 0 1 1.56 2.19c.578.964.222 1.886-.854 2.052Z" fill="#fff"/></svg>