<svg width="70" height="70" fill="none" xmlns="http://www.w3.org/2000/svg"><path d="M35 70c19.33 0 35-15.67 35-35S54.33 0 35 0 0 15.67 0 35s15.67 35 35 35Z" fill="#5EC14E"/><path d="M45.498 24.402a14.601 14.601 0 0 0-4.6-3.042 14.636 14.636 0 0 0-5.579-1.087 14.49 14.49 0 0 0-10.277 4.26 14.49 14.49 0 0 0-4.26 10.279c0 1.284.164 2.558.482 3.777a14.49 14.49 0 0 0 1.45 3.492l.209.35-1.208 5.974 6.324-.977.319.176a14.717 14.717 0 0 0 6.961 1.767c4.008 0 7.654-1.636 10.278-4.26a14.506 14.506 0 0 0 4.271-10.288c0-1.955-.373-3.844-1.098-5.579a14.592 14.592 0 0 0-3.151-4.721l-.12-.12Zm-13.012 6.566c-.098-.197-.933-2.218-1.273-3.041-.33-.813-.67-.692-.923-.714-.241-.01-.516-.01-.79-.01-.275 0-.725.109-1.098.515-.374.406-1.439 1.406-1.439 3.426 0 2.031 1.472 3.986 1.68 4.26.198.275 2.9 4.425 7.028 6.204a21.1 21.1 0 0 0 2.339.868c.988.307 1.877.274 2.602.165.768-.121 2.416-1 2.767-1.955.34-.966.34-1.79.242-1.955-.11-.175-.374-.274-.791-.494-.417-.197-2.438-1.186-2.811-1.328-.373-.132-.659-.198-.933.197-.264.418-1.054 1.351-1.285 1.625-.242.275-.494.308-.9.1-.418-.21-1.746-.638-3.317-2.043-1.218-1.098-2.042-2.438-2.284-2.844-.23-.417 0-.615.176-.835.45-.57.912-1.141 1.032-1.416.143-.274.077-.516-.022-.725Zm9.246-11.628a16.932 16.932 0 0 1 5.435 3.635l.33.34a16.74 16.74 0 0 1 3.305 5.095 16.985 16.985 0 0 1 1.262 6.412c0 4.623-1.877 8.807-4.908 11.837A16.723 16.723 0 0 1 27.644 49.7l-8.696 1.34 1.658-8.235a16.863 16.863 0 0 1-1.46-3.645 17.063 17.063 0 0 1-.572-4.348c0-4.612 1.889-8.796 4.92-11.826a16.672 16.672 0 0 1 11.825-4.92c2.23 0 4.403.44 6.413 1.274Z" fill="#fff"/></svg>