<svg width="38" height="38" fill="none" xmlns="http://www.w3.org/2000/svg"><path d="M19 38c10.493 0 19-8.507 19-19S29.493 0 19 0 0 8.507 0 19s8.507 19 19 19Z" fill="#5EC14E"/><path d="M24.7 13.247a7.924 7.924 0 0 0-2.498-1.651 7.944 7.944 0 0 0-3.028-.59 7.866 7.866 0 0 0-5.58 2.313 7.866 7.866 0 0 0-2.312 5.579c0 .697.089 1.389.262 2.05.179.662.441 1.3.787 1.896l.113.19-.656 3.243 3.434-.53.173.095a7.982 7.982 0 0 0 3.779.96 7.88 7.88 0 0 0 5.579-2.313 7.875 7.875 0 0 0 2.319-5.585 7.838 7.838 0 0 0-.596-3.028 7.923 7.923 0 0 0-1.711-2.563l-.066-.066Zm-7.064 3.564c-.054-.107-.507-1.204-.692-1.65-.178-.442-.363-.376-.5-.388-.131-.006-.28-.006-.43-.006a.832.832 0 0 0-.596.28c-.202.22-.78.763-.78 1.86 0 1.103.798 2.164.912 2.313.107.149 1.573 2.402 3.814 3.367.53.233.942.37 1.27.471.537.167 1.02.15 1.413.09.417-.066 1.311-.543 1.502-1.061.185-.525.185-.972.131-1.061-.06-.096-.203-.15-.43-.268-.226-.108-1.322-.644-1.525-.722-.203-.071-.358-.107-.507.108-.143.226-.572.733-.697.882-.131.149-.268.167-.489.053-.227-.113-.948-.345-1.8-1.108-.662-.596-1.109-1.323-1.24-1.544-.125-.227 0-.334.095-.453.245-.31.495-.62.56-.769.078-.15.043-.28-.011-.393Zm5.019-6.312a9.192 9.192 0 0 1 2.95 1.973l.18.185a9.086 9.086 0 0 1 1.793 2.766 9.22 9.22 0 0 1 .686 3.48 9.06 9.06 0 0 1-2.665 6.427 9.06 9.06 0 0 1-8.66 2.384 9.129 9.129 0 0 1-1.932-.733l-4.72.727.9-4.47a9.155 9.155 0 0 1-.793-1.98 9.062 9.062 0 0 1 2.36-8.78 9.066 9.066 0 0 1 9.9-1.979Z" fill="#fff"/></svg>