<svg width="50" height="50" fill="none" xmlns="http://www.w3.org/2000/svg"><rect width="50" height="50" rx="12" fill="#fff"/><path d="M36.456 9.871c-3.106-2.382-6.974-3.63-10.87-3.835.142 3.521.09 7.11 1.065 10.527.726 2.674 2.605 5.044 5.151 6.206 3.832 1.648 8.104 1.525 12.196 1.691 0-5.676-2.985-11.225-7.542-14.589ZM24.426 6c-3.447.286-6.9 1.189-9.79 3.144-5.152 3.293-8.526 9.208-8.622 15.316 3.785-.134 7.68-.08 11.307-1.318 2.617-.92 4.818-2.983 5.733-5.613C24.393 13.85 24.361 9.86 24.428 6Zm-7.792 20.663c-3.46-.946-7.074-.975-10.634-1.06.123 4.808 2.185 9.543 5.658 12.894 3.348 3.366 8.033 5.31 12.771 5.5-.091-3.93-.025-8.003-1.464-11.73-1.025-2.756-3.523-4.809-6.331-5.604ZM44 25.61c-4.302.153-8.896-.045-12.821 2.008-2.685 1.366-4.266 4.207-4.83 7.067-.643 3.062-.662 6.203-.742 9.315 5.08-.193 10.063-2.432 13.481-6.197 2.998-3.311 4.928-7.7 4.912-12.193Z" fill="url(#a)"/><defs><linearGradient id="a" x1="17" y1="41.5" x2="33.5" y2="8" gradientUnits="userSpaceOnUse"><stop stop-color="#181A27"/><stop offset="1" stop-color="#2D2F3B"/></linearGradient></defs></svg>