<svg width="60" height="60" fill="none" xmlns="http://www.w3.org/2000/svg"><rect width="60" height="60" rx="12" fill="red"/><path d="M48.308 20.982a4.776 4.776 0 0 0-3.36-3.36c-3-.827-14.947-.827-14.947-.827s-11.946 0-14.946.787c-1.6.44-2.92 1.76-3.36 3.4-.787 2.986-.787 9.186-.787 9.186s0 6.227.787 9.187a4.776 4.776 0 0 0 3.36 3.36c3.026.827 14.947.827 14.947.827s11.946 0 14.946-.787a4.794 4.794 0 0 0 3.36-3.373c.787-2.987.787-9.187.787-9.187s.026-6.227-.787-9.213ZM26.201 35.888v-11.44l9.934 5.72-9.933 5.72Z" fill="#fff"/></svg>