<svg width="50" height="50" fill="none" xmlns="http://www.w3.org/2000/svg"><rect width="50" height="50" rx="12" fill="#F96600"/><path d="M23.369 32.245c-2.585-.267-4.916-.9-6.91-2.442-.248-.193-.503-.379-.73-.6-.873-.831-.96-1.782-.27-2.76.591-.84 1.582-1.066 2.615-.583.199.1.39.214.57.342a11.401 11.401 0 0 0 6.26 1.938c2.234.02 4.425-.614 6.295-1.824.358-.286.77-.499 1.212-.624.412-.12.852-.1 1.25.057.399.158.732.443.947.81.546.883.54 1.74-.133 2.424a10.103 10.103 0 0 1-3.652 2.338c-1.338.476-2.73.785-4.145.92.212.232.303.343.448.475 1.918 1.91 3.846 3.813 5.758 5.727a1.868 1.868 0 0 1 .43 2.22c-.184.401-.483.74-.86.975a2.285 2.285 0 0 1-1.26.342 2.074 2.074 0 0 1-1.35-.684c-1.448-1.443-2.924-2.86-4.342-4.33-.412-.425-.606-.344-.976.025a234.48 234.48 0 0 1-4.427 4.4 1.877 1.877 0 0 1-2.243.399 2.263 2.263 0 0 1-.962-.841 2.231 2.231 0 0 1-.347-1.225 2.06 2.06 0 0 1 .703-1.386c1.903-1.878 3.8-3.757 5.691-5.637.128-.13.249-.264.428-.456Z" fill="#fff"/><path d="M24.941 25.704a8.497 8.497 0 0 1-4.685-1.438 8.368 8.368 0 0 1-3.084-3.776 8.273 8.273 0 0 1-.442-4.837 8.329 8.329 0 0 1 2.351-4.262 8.466 8.466 0 0 1 4.349-2.247 8.515 8.515 0 0 1 4.876.528 8.416 8.416 0 0 1 3.755 3.124 8.29 8.29 0 0 1 1.365 4.664 8.318 8.318 0 0 1-2.528 5.852 8.488 8.488 0 0 1-5.957 2.392Zm4.191-8.36a4.058 4.058 0 0 0-.703-2.27 4.12 4.12 0 0 0-1.859-1.5 4.167 4.167 0 0 0-2.387-.223 4.14 4.14 0 0 0-2.11 1.128 4.074 4.074 0 0 0-1.12 2.098 4.049 4.049 0 0 0 .247 2.361c.316.746.85 1.382 1.53 1.827.683.446 1.482.681 2.3.676a4.149 4.149 0 0 0 2.91-1.205 4.035 4.035 0 0 0 1.192-2.893Z" fill="#fff"/></svg>