<svg xmlns="http://www.w3.org/2000/svg" width="221" height="181" fill="none"><path fill="#fff" fill-opacity=".3" fill-rule="evenodd" d="M130.361 1.53h-.037v-28.854h.017c0-1.374.291-2.777.912-4.111l.141-.295.017.006a9.875 9.875 0 0 1 5.02-4.875 9.965 9.965 0 0 1 3.968-.818c12.387.027 24.002 3.31 34.016 9.027 10.322 5.89 18.937 14.347 24.949 24.474 1.842 2.974 2.023 6.827.13 10.056l-.178.31-.014-.01a9.794 9.794 0 0 1-3.635 3.58l-25.24 14.426-24.952 14.262a9.906 9.906 0 0 1-5.217 1.47c-1.323 0-2.589-.258-3.744-.723-3.608-1.463-6.153-4.974-6.153-9.075V1.53Zm5.193 159.396c.37-.031.733-.041 1.093-.034 5 .112 9.218 3.938 9.661 8.986.47 5.412-3.58 10.178-9.044 10.643-1.402.123-3.237.231-5.493.33-2.281.098-4.116.149-5.501.149-34.867 0-66.434-13.994-89.284-36.615C14.136 121.765 0 90.515 0 55.998 0 21.482 14.136-9.769 36.986-32.389 59.836-55.009 91.403-69 126.27-69c1.385 0 3.22.047 5.501.146 2.256.098 4.091.207 5.493.33 5.464.468 9.514 5.23 9.044 10.642-.449 5.127-4.788 8.99-9.887 8.99a9.32 9.32 0 0 1-.867-.037c-1.969-.17-3.516-.279-4.637-.326-1.097-.047-2.648-.071-4.647-.071-29.383 0-55.981 11.787-75.234 30.846C31.783.58 19.873 26.914 19.873 55.998c0 29.088 11.91 55.419 31.163 74.479 19.253 19.059 45.851 30.849 75.234 30.849 1.999 0 3.55-.023 4.647-.071 1.121-.048 2.668-.16 4.637-.329Zm37.222-127.85 25.24-14.429.007.014a9.869 9.869 0 0 1 3.261-1.172c4.099-.848 8.454.951 10.645 4.743A66.95 66.95 0 0 1 221 55.91a67.51 67.51 0 0 1-9.044 33.814l-.023-.014a9.901 9.901 0 0 1-8.355 4.93 9.914 9.914 0 0 1-5.562-1.304l-25.24-14.425.01-.017-24.688-14.11a9.829 9.829 0 0 1-4.174-3.873c-2.743-4.689-1.124-10.694 3.611-13.41l25.241-14.425Zm-42.367 106.187v-28.851h.038V81.559c0-4.078 2.52-7.574 6.104-9.051a9.99 9.99 0 0 1 3.797-.747c1.807 0 3.501.482 4.959 1.32l.006-.013 25.241 14.425c.175.102.343.207.511.316l24.691 14.113a9.771 9.771 0 0 1 3.632 3.581l.017-.01.179.309a9.727 9.727 0 0 1-.131 10.056c-6.015 10.127-14.63 18.584-24.949 24.474-10.013 5.717-21.629 9-34.019 9.027a9.944 9.944 0 0 1-3.851-.771 9.885 9.885 0 0 1-5.138-4.922l-.017.006-.137-.298a9.707 9.707 0 0 1-.916-4.111h-.017Z" clip-rule="evenodd"/></svg>