<svg xmlns="http://www.w3.org/2000/svg" width="1890" height="194" fill="none"><path fill="#fff" fill-opacity=".03" fill-rule="evenodd" d="M-867.044 5.097v98.163c0 .361.087.577.26.664.174.087.361-.044.535-.405l66.575-98.422h38.91v188.006h-42.943V89.308c0-.36-.087-.576-.261-.663-.187-.087-.361.043-.549.404l-67.369 104.054H-910V5.097h42.956ZM804.824 79.662h135.823v38.618H804.824V79.662ZM-582.81 5.097v188.006h-42.941v-48.28c0-1.79-.897-2.686-2.69-2.686h-56.903c-1.606 0-2.414.896-2.414 2.686v48.28h-42.943V5.097h42.943v91.461c0 1.777.808 2.672 2.414 2.672h56.903c1.793 0 2.69-.895 2.69-2.672V5.097h42.941Zm199.688 0v42.907h-59.586c-1.243 0-1.879.636-1.879 1.878v143.221h-42.943V49.882c0-1.242-.622-1.878-1.878-1.878h-59.854V5.097h166.14Zm64.415 43.456c-1.438 0-2.141.708-2.141 2.138v35.672c0 1.603.703 2.41 2.141 2.41h87.248v42.649h-87.248c-1.438 0-2.141.794-2.141 2.412v13.936c0 1.43.703 2.152 2.141 2.152h107.889v42.907h-152.968V5.097h152.968v43.456h-107.889ZM6.331 192.829H-39.3L-85.466 64.642c-.352-1.257-1.205-1.877-2.543-1.877-1.355 0-2.208.62-2.542 1.877l-46.167 128.187h-45.631l67.627-187.991h53.426L6.331 192.829Zm213.118 0h-45.631L127.651 64.642c-.351-1.257-1.204-1.877-2.542-1.877-1.338 0-2.191.62-2.559 1.877L76.384 192.829H30.752L98.396 4.838h53.409l67.644 187.991Zm69.517-144.276c-1.439 0-2.141.708-2.141 2.138v35.672c0 1.603.702 2.41 2.141 2.41h87.214v42.649h-87.214c-1.439 0-2.141.794-2.141 2.412v13.936c0 1.43.702 2.152 2.141 2.152h107.889v42.907H243.87V5.097h152.985v43.456H288.966ZM503.689 98.97l81.594 94.132h-56.637l-54.747-63.299c-.903-.895-1.89-1.112-2.961-.664-1.07.448-1.606 1.299-1.606 2.541v61.422h-44.008V5.097h44.008v61.422c0 1.242.536 2.051 1.606 2.412 1.071.361 2.058.087 2.961-.809l54.747-63.025h56.637L503.689 98.97ZM782.828 5.097v42.907H723.23c-1.254 0-1.873.636-1.873 1.878v143.221h-42.938V49.882c0-1.242-.619-1.878-1.874-1.878H616.68V5.097h166.148Zm184.114 0h157.278v187.472h-43.2V48.004h-71.14V192.57h-42.938V5.097Zm279.688.535c11.28 0 21.86 2.151 31.8 6.44 9.92 4.29 18.62 10.11 26.04 17.432 7.41 7.337 13.29 15.96 17.57 25.88 4.3 9.922 6.45 20.523 6.45 31.787 0 10.01-1.99 19.843-5.92 29.49-3.93 9.662-9.38 18.328-16.37 26.026-7.86 8.579-16.9 15.107-27.1 19.568-10.2 4.477-21.03 6.702-32.47 6.702h-47.79v24.146h-42.67V5.632h90.46Zm-.28 120.417c5.38 0 10.42-.983 15.17-2.945 4.75-1.964 8.9-4.694 12.48-8.174 3.58-3.496 6.4-7.611 8.46-12.349 2.04-4.737 3.1-9.777 3.1-15.15 0-5.357-1.06-10.412-3.1-15.15-2.06-4.737-4.83-8.896-8.33-12.477-3.48-3.567-7.61-6.384-12.34-8.435-4.74-2.064-9.8-3.09-15.16-3.09h-44.83c-1.97 0-2.96.982-2.96 2.946v72.153c0 1.775.99 2.671 2.96 2.671h44.55Zm271.09 67.054h-45.63l-6.97-19.048c-.37-1.242-1.16-1.879-2.41-1.879h-81.06c-1.07 0-1.89.637-2.43 1.879l-6.69 19.048h-45.65l67.65-188.006h55.55l67.64 188.006Zm-121.05-67.314c-.35.896-.27 1.69.27 2.412.55.708 1.25 1.07 2.15 1.07h46.44c2.31 0 3.13-1.157 2.41-3.482l-23.09-64.368c-.53-1.256-1.42-1.877-2.67-1.877-1.27 0-2.06.621-2.43 1.877l-23.08 64.368Zm284.24-27.627c4.65 5.185 8.2 10.99 10.6 17.431 2.43 6.441 3.62 13.143 3.62 20.118 0 7.857-1.47 15.236-4.42 22.124-2.94 6.876-7.02 12.912-12.21 18.097-5.18 5.184-11.24 9.258-18.11 12.203-6.9 2.947-14.29 4.434-22.15 4.434h-100.65V5.371h100.65c8.06 0 15.57 1.474 22.53 4.42 6.99 2.947 13.06 7.193 18.27 12.738 4.65 5.185 8.28 11.178 10.87 17.966 2.59 6.802 3.9 14.037 3.9 21.735 0 13.762-4.32 25.736-12.9 35.932Zm-100.65-23.064c0 1.603.89 2.412 2.68 2.412h53.68c3.76 0 7.07-1.474 9.93-4.42 2.86-2.96 4.3-6.484 4.3-10.6.18-4.117-1.15-7.553-4.03-10.327-2.86-2.771-6.26-4.159-10.2-4.159h-53.68c-1.79 0-2.68.81-2.68 2.427v24.667Zm0 72.412c0 1.603.89 2.412 2.68 2.412h55.03c3.93 0 7.34-1.386 10.2-4.159 2.86-2.773 4.29-6.21 4.29-10.326-.19-4.117-1.66-7.641-4.44-10.586-2.76-2.961-6.02-4.433-9.78-4.433h-55.3c-1.79 0-2.68.807-2.68 2.41v24.682Zm299.53-114.525c5.19 9.3 8.25 19.265 9.14 29.909.9 10.644 1.35 21.866 1.35 33.664v18.226h-.28c-.36 8.044-1.21 15.829-2.55 23.34-1.33 7.508-3.89 14.658-7.66 21.445-6.62 11.626-16.09 20.031-28.43 25.216-11.09 5.184-25.78 7.784-44.03 7.784-17.88 0-32.57-2.6-44.02-7.784-12.16-5.357-21.56-13.764-28.19-25.216-5.18-9.286-8.21-19.309-9.11-30.024-.91-10.73-1.34-21.909-1.34-33.535V77.784h.26c.36-8.044 1.16-15.828 2.41-23.339 1.26-7.509 3.85-14.659 7.78-21.46 6.63-11.438 16.03-19.844 28.19-25.202C1774.48 2.6 1789.17 0 1807.05 0c18.25 0 32.94 2.6 44.03 7.783 12.34 5.186 21.81 13.59 28.43 25.202Zm-33 63.573c0-8.592-.18-16.68-.53-24.277-.37-7.596-1.81-13.547-4.3-17.836-.37-.707-1.02-1.647-2.01-2.815-.99-1.155-2.74-2.325-5.24-3.48-2.51-1.17-5.9-2.197-10.2-3.091-4.3-.896-10.02-1.344-17.18-1.344-6.97 0-12.66.448-17.04 1.344-4.39.894-7.78 1.92-10.19 3.09-2.43 1.156-4.13 2.326-5.12 3.481-.97 1.168-1.65 2.108-2.01 2.815-2.5 4.29-3.94 10.11-4.28 17.432-.37 7.337-.55 15.193-.55 23.598v.535c0 8.592.18 16.68.55 24.277.34 7.596 1.78 13.547 4.28 17.837.36.533 1.04 1.429 2.01 2.686.99 1.242 2.69 2.454 5.12 3.609 2.41 1.17 5.8 2.196 10.19 3.091 4.38.896 10.07 1.344 17.04 1.344 7.16 0 12.88-.448 17.18-1.344 4.3-.895 7.69-1.921 10.2-3.091 2.5-1.155 4.25-2.367 5.24-3.609a57.213 57.213 0 0 0 2.01-2.686c2.49-4.29 3.93-10.11 4.3-17.432.35-7.337.53-15.296.53-23.873v-.26Z" clip-rule="evenodd"/></svg>